<svg width="34" height="31" viewBox="0 0 34 31" fill="none" xmlns="http://www.w3.org/2000/svg">
<path d="M16.0767 10.433C21.2016 9.57392 24.968 12.6844 26.3391 13.8143C27.596 14.8511 28.9967 16.0403 29.6273 18.1308C30.5541 21.2116 29.0898 23.9074 28.7809 24.4744C27.2151 27.3521 24.5363 28.4693 22.9917 29.1126C21.3285 29.8066 15.7932 32.113 11.1212 28.9856C10.753 28.7402 6.89777 26.0656 6.67348 21.3428C6.52113 18.0377 8.23505 15.689 8.91215 14.7918C9.30572 14.2713 11.7264 11.1651 16.0767 10.433Z" fill="#2E6AC8" fill-opacity="0.5"/>
<path d="M15.9075 0.479505C14.5364 1.09313 14.1132 2.53621 13.9735 3.00172C13.5588 4.40671 13.58 6.84428 15.3574 7.94034C16.5635 8.68515 18.0996 8.52011 19.1999 7.88109C21.1085 6.77657 21.1678 4.55482 21.172 4.38131C21.172 4.13163 21.1635 2.51505 19.8728 1.33435C18.946 0.483737 17.3379 -0.159511 15.9117 0.479505H15.9075Z" fill="#2E6AC8" fill-opacity="0.5"/>
<path d="M27.7314 2.99325C26.9612 3.6492 26.7369 4.47442 26.5803 5.07958C26.3814 5.85825 25.8482 7.92341 27.2151 9.4215C28.4466 10.7715 30.2748 10.6149 30.3848 10.6022C32.3569 10.3991 33.3048 8.72324 33.4276 8.49049C34.1597 7.13205 33.855 5.80746 33.7449 5.32503C33.6053 4.72833 33.3091 3.4376 32.0945 2.68009C31.0915 2.05377 30.042 2.1511 29.6781 2.20189C29.3057 2.23574 28.472 2.35847 27.7314 2.98902V2.99325Z" fill="#2E6AC8" fill-opacity="0.5"/>
<path d="M3.10179 6.21365C3.23721 6.14594 5.0146 5.29533 6.56771 6.23481C7.80342 6.98386 8.14621 8.33383 8.33664 9.34103C8.51015 10.2593 8.6625 11.5331 7.94731 12.6927C7.06284 14.1231 5.03153 14.9102 3.40225 14.2627C2.11575 13.7549 1.58253 12.5488 1.34555 12.0283C1.21859 11.7447 0.36798 9.74729 1.42595 7.8514C1.58677 7.56363 2.0692 6.72571 3.09755 6.21365H3.10179Z" fill="#2E6AC8" fill-opacity="0.5"/>
</svg>
