<svg width="60" height="60" viewBox="0 0 60 60" fill="none" xmlns="http://www.w3.org/2000/svg">
<g clip-path="url(#clip0_14_2498)">
<path d="M30.4498 25.8987C28.5659 25.8987 24.6075 26.8195 21.4112 29.3597C17.7068 32.302 18.4795 34.4611 14.9339 39.7954C12.7747 43.0552 8.63645 45.1085 7.69448 48.6329C6.73135 52.2526 8.31893 57.1847 11.42 59.3438C14.4364 61.4394 26.2586 57.9467 29.709 57.9467H31.1907C34.641 57.9467 46.4632 61.4394 49.4796 59.3438C52.5807 57.1953 54.1683 52.2632 53.2052 48.6329C52.2738 45.1085 48.1249 43.0552 45.9658 39.7954C42.4308 34.4611 43.2034 32.302 39.4885 29.3597C36.2921 26.8195 32.3338 25.8987 30.4498 25.8987Z" fill="#040000"/>
<path d="M6.29741 15.1455C9.09156 15.1455 11.2613 17.9185 12.0762 20.8079C12.3831 21.9192 13.6426 26.4173 10.9967 29.3067C8.48828 32.0374 3.69378 31.995 1.66167 29.8465C-1.49232 26.502 0.687957 20.2364 1.34416 18.8075C2.02153 17.3258 3.8737 15.1455 6.29741 15.1455Z" fill="#040000"/>
<path d="M19.8024 0C22.5966 0 24.7663 2.77298 25.5812 5.66237C25.8882 6.77368 27.1477 11.2718 24.5017 14.1612C21.9933 16.8919 17.1988 16.8495 15.1667 14.701C12.0127 11.3565 14.193 5.09085 14.8492 3.66202C15.5266 2.16969 17.3787 0 19.8024 0Z" fill="#040000"/>
<path d="M53.7026 15.1455C50.9085 15.1455 48.7388 17.9185 47.9238 20.8079C47.6169 21.9192 46.3574 26.4173 49.0034 29.3067C51.5117 32.0374 56.3062 31.995 58.3383 29.8465C61.4923 26.502 59.312 20.2364 58.6558 18.8075C57.9785 17.3258 56.1263 15.1455 53.7026 15.1455Z" fill="#040000"/>
<path d="M40.1976 0C37.4034 0 35.2337 2.77298 34.4188 5.66237C34.1118 6.77368 32.8524 11.2718 35.4983 14.1612C38.0067 16.8919 42.8012 16.8495 44.8333 14.701C47.9873 11.3565 45.807 5.09085 45.1508 3.66202C44.4735 2.16969 42.6213 0 40.1976 0Z" fill="#040000"/>
</g>
<defs>
<clipPath id="clip0_14_2498">
<rect width="60" height="60" fill="white"/>
</clipPath>
</defs>
</svg>
